<svg width="213" height="301" viewBox="0 0 213 301" xmlns="http://www.w3.org/2000/svg" preserveAspectRatio="xMinYMin meet">
  <path d="M128.9 34.3c-2.3-2.7-4.2-5.7-5.5-9.3 6.9-2.2 13.4-4.2 13.4-4.2.8-.2 5.2-1.4 5.2-5.3V4.1c0-2.3-15.8-4.1-35.3-4.1-19.5 0-35.3 1.8-35.3 4.1v11.4c0 3.9 4.4 5.1 5.2 5.3 0 0 6.5 2 13.4 4.2-1.3 3.6-3.2 6.6-5.5 9.3-16.5 3.4-27.1 11-34 21.4-6.7.1-23.3 1.4-35.6 12.8C5.6 77.1.8 89.3.8 104.8c0 24.7 37.2 78.3 44.8 89.1 9.4 34 26.7 68 42.1 85.7-2.3 3.5-3.6 7.7-3.6 12.1 0 12.3 45 12.3 45 0 0-4.6-1.4-9-3.9-12.5 22.4-26.2 49.4-86.8 49.4-131.2.2-51.8 5.8-102.9-45.7-113.7zM38.2 152.9c-18.4-30.4-21.2-43.2-21.2-48 0-10.9 3.1-19.3 9.1-24.8 5.4-5 12.4-7.1 17.9-8-6.3 21.2-4.7 48.6-4.7 76.1 0 2.3.1 4.6.2 6.9-.4-.8-.9-1.5-1.3-2.2z" fill="#CECDC0"/>
  <path d="M213 103.9c0-15.4-4.8-27.5-14.2-36.1-12.6-11.5-29.7-12.7-36.3-12.7-6.9-10.1-17.4-17.4-33.6-20.8-2.3-2.6-4.2-5.7-5.5-9.3 6.9-2.1 13.4-4.1 13.4-4.2.8-.2 5.2-1.4 5.2-5.3V4.2c0-2.3-15.8-4.1-35.3-4.1-3.4 0-6.7.1-9.8.2 14.7.5 25.5 2.1 25.5 3.9v11.3c0 3.9-4.4 5.1-5.2 5.3 0 0-6.5 2-13.4 4.2 1.3 3.6 3.2 6.6 5.5 9.3C160.9 45 155.2 96 155.2 147.6c0 44.3-27 104.7-49.4 130.8 2.4 3.6 3.9 7.9 3.9 12.5 0 4.3-5.5 7.1-12.7 8.4 13.3 2.4 32.2-.4 32.2-8.4 0-4.6-1.4-8.9-3.9-12.5 15.3-17.8 32.8-51.7 42.3-85.5 7.7-10.6 45.4-64.3 45.4-89zm-24.9-24.8c6.1 5.5 9.2 13.9 9.2 24.8 0 10-10.6 30.6-22.6 50.2.1-2.2.2-4.4.2-6.5 0-27.7 1.6-55.2-4.8-76.4 5.4.8 12.5 2.9 18 7.9z" fill="#BCBBAD"/>
</svg>
