<svg width="308" height="111" viewBox="0 0 308 111" xmlns="http://www.w3.org/2000/svg"><title>Clay Logo</title><desc>Created with Sketch.</desc><g fill="none"><path d="M119.973 97.014c-16.469 0-26.796-10.718-26.796-24.837v-46.663c0-14.117 10.327-24.835 26.796-24.835s25.751 10.718 25.751 24.835v8.757c0 1.831-1.57 3.398-3.399 3.398h-11.242c-1.831 0-3.398-1.567-3.398-3.398v-8.757c0-4.314-2.353-8.758-7.712-8.758-5.883 0-8.365 4.444-8.365 8.758v46.663c0 4.314 2.482 8.759 8.365 8.759 5.359 0 7.712-4.444 7.712-8.759v-8.757c0-1.829 1.567-3.398 3.398-3.398h11.242c1.829 0 3.399 1.569 3.399 3.398v8.757c0 14.119-9.282 24.837-25.751 24.837zm70.261-1.569h-35.552c-1.832 0-3.398-1.57-3.398-3.398v-86.663c0-1.831 1.567-3.268 3.398-3.268h11.764c.869-.009 1.705.333 2.32.947.614.615.956 1.451.947 2.32v70.717c0 1.83 1.566 3.268 3.398 3.268h17.123c1.828 0 3.397 1.568 3.397 3.398v9.281c.001 1.828-1.569 3.398-3.397 3.398zm41.037-68.624c-.129-.916-.916-1.437-1.569-1.437-.653 0-1.437.521-1.437 1.437l-4.182 30.457c-.262 1.828.913 3.268 2.874 3.268h5.621c1.829 0 2.877-1.439 2.744-3.268l-4.051-30.457zm26.275 68.624h-11.896c-1.961 0-3.66-1.438-3.922-3.27l-2.746-14.77c-.391-1.829-2.09-3.398-3.922-3.398h-10.586c-1.961 0-3.66 1.569-3.922 3.398l-2.744 14.77c-.392 1.832-2.091 3.27-3.922 3.27h-11.894c-1.961 0-3.007-1.438-2.615-3.27l18.562-86.792c.391-1.831 2.09-3.268 4.051-3.268h15.556c1.829 0 3.66 1.437 4.052 3.268l18.561 86.792c.393 1.833-.784 3.27-2.613 3.27zm32.645-44.705c-.262.916-.653 2.223-.916 3.401-.129 1.175-.26 2.22-.26 3.136v34.77c0 1.828-1.438 3.398-3.399 3.398h-11.765c-1.828 0-3.397-1.57-3.397-3.398v-34.9c0-1.047-.13-2.223-.392-3.529-.131-1.046-.393-2.223-.783-3.007l-16.602-45.359c-.524-1.699.392-3.136 2.224-3.136h10.719c2.482 0 4.051 1.307 4.443 3.136l8.235 28.627c.261.916.913 1.308 1.437 1.308.654 0 1.176-.392 1.438-1.308l8.366-28.627c.524-1.829 1.831-3.136 4.313-3.136h10.851c1.959 0 2.874 1.437 2.221 3.136l-16.733 45.488z" fill="#A59B8B"/><g transform="translate(0 2)"><path d="M43.72 67.946c-.096.282-.253.79-.448 1.503-.321 1.168-.639 2.508-.935 4.004-2.023 10.22-2.023 21.569 1.356 32.958.358 1.218 1.629 1.907 2.836 1.546 1.207-.363 1.893-1.643 1.533-2.859-3.144-10.59-3.144-21.207-1.251-30.745.271-1.384.564-2.616.857-3.677.102-.368.193-.687.276-.954l.091-.289c.405-1.198-.23-2.506-1.42-2.916-1.195-.409-2.492.229-2.899 1.43h.004v-.001zm29.477 1.488l.091.29c.084.266.176.584.275.95.292 1.062.585 2.295.859 3.677 1.89 9.54 1.89 20.156-1.251 30.748-.363 1.216.321 2.495 1.531 2.86 1.207.36 2.479-.33 2.84-1.546 3.377-11.393 3.377-22.743 1.353-32.962-.294-1.498-.614-2.836-.933-4.004-.196-.715-.352-1.221-.448-1.502-.406-1.201-1.708-1.84-2.897-1.431-1.192.41-1.826 1.72-1.42 2.92zm-68.249 2.349c.429-9.363 4.232-15.207 10.365-18.487 2.242-1.2 4.662-1.975 7.1-2.4.869-.15 1.684-.245 2.417-.298.456-.031.794-.041.99-.039h-.003c1.259.021 2.299-.987 2.321-2.257.022-1.27-.98-2.315-2.239-2.339h-.038c-.311 0-.766.01-1.344.051-.886.061-1.854.175-2.884.354-2.884.504-5.759 1.421-8.464 2.869-7.53 4.03-12.275 11.322-12.782 22.335-.056 1.267.918 2.343 2.176 2.4 1.259.06 2.326-.92 2.383-2.189h.002zm117.849-.211c-.507-11.014-5.249-18.305-12.782-22.335-2.705-1.447-5.579-2.366-8.46-2.868-1.031-.179-2-.293-2.886-.354-.578-.041-1.031-.051-1.345-.051h-.034c-1.261.024-2.265 1.069-2.243 2.339.022 1.269 1.062 2.278 2.321 2.256.194-.003.531.007.985.037.737.051 1.55.148 2.42.3 2.435.426 4.858 1.198 7.1 2.4 6.133 3.278 9.936 9.124 10.366 18.487.057 1.267 1.125 2.248 2.383 2.188 1.259-.058 2.231-1.133 2.174-2.4l.001.001z" fill="#C8B585"/><path d="M61.176 88.227c27.971 0 50.647-9.051 50.647-37.22.001-28.172-27.113-51.007-50.647-51.007-23.533 0-50.647 22.835-50.647 51.006s22.675 37.221 50.647 37.221z" fill="#DDCFAC"/><path d="M56.178 55.275c.332 2.188 2.191 3.824 4.395 3.824 2.206 0 4.067-1.64 4.395-3.83.058-.379-.203-.729-.575-.783-.372-.061-.722.199-.777.574-.23 1.524-1.521 2.662-3.043 2.662-1.521 0-2.811-1.137-3.042-2.656-.058-.375-.406-.633-.777-.576-.375.055-.632.409-.575.783v.002h-.001z" fill="#907E59"/><ellipse fill="#907E59" cx="37.844" cy="39.791" rx="3.649" ry="5.744"/><ellipse fill="#907E59" cx="83.484" cy="39.791" rx="3.649" ry="5.744"/><path d="M72.507 1.702c17.039 7.78 31.707 25.434 31.707 45.967 0 27.728-22.369 36.638-49.962 36.638-11.349 0-21.811-1.51-30.199-5.212 9.273 6.746 22.739 9.346 37.729 9.346 27.969 0 50.644-9.049 50.644-37.219-.001-23.945-19.592-44.033-39.919-49.52" fill="#C8B585"/></g></g></svg>