<svg xmlns="http://www.w3.org/2000/svg" height="512" width="512" viewBox="0 0 512 512"><circle fill-rule="evenodd" cx="256" cy="256" r="256" fill="#337ab7"/><path d="M287.775 238.574c-6.331-1.007-6.475-18.415-6.475-18.415s18.603-18.416 22.657-43.18c10.907 0 17.643-26.327 6.735-35.59.458-9.747 14.019-76.543-54.65-76.543s-55.105 66.796-54.651 76.543c-10.908 9.263-4.172 35.59 6.735 35.59 4.054 24.764 22.657 43.18 22.657 43.18s-.144 17.408-6.475 18.415c-20.393 3.241-96.546 36.828-96.546 73.663h256.556c0-36.834-76.154-70.421-96.546-73.663z" fill="#fff"/><g fill="#fff"><path d="M112.57 432.42v-78.096h15.898v64.829h39.531v13.267h-55.43z"/><path d="M179.33 353.68h29.058q9.829 0 14.985 1.504 6.929 2.041 11.87 7.251 4.941 5.21 7.519 12.783 2.578 7.519 2.578 18.584 0 9.722-2.417 16.758-2.954 8.594-8.433 13.911-4.136 4.028-11.172 6.284-5.264 1.665-14.072 1.665h-29.917v-78.74zm15.898 13.32v52.153h11.87q6.66 0 9.614-.752 3.867-.967 6.392-3.276 2.578-2.31 4.189-7.573 1.611-5.317 1.611-14.448t-1.611-14.019q-1.611-4.888-4.512-7.627t-7.358-3.706q-3.33-.752-13.052-.752h-7.144z"/><path d="M329.88 432.42h-17.295l-6.875-17.886h-31.475l-6.499 17.886h-16.865l30.669-78.74h16.812l31.528 78.74zm-29.272-31.152l-10.85-29.219-10.635 29.219h21.484z"/><path d="M338.37 432.42v-78.74h25.513q14.502 0 18.906 1.182 6.768 1.772 11.333 7.734 4.565 5.908 4.565 15.308 0 7.251-2.632 12.192t-6.714 7.788q-4.028 2.793-8.218 3.706-5.693 1.128-16.489 1.128h-10.366v29.702h-15.898zm15.898-65.42v22.344h8.701q9.399 0 12.568-1.235 3.169-1.235 4.941-3.867 1.826-2.632 1.826-6.123 0-4.297-2.524-7.09t-6.392-3.491q-2.847-.537-11.44-.537h-7.681z"/></g></svg>