<svg xmlns="http://www.w3.org/2000/svg" height="1000" width="1000" viewBox="0 0 1000 1000" enable-background="new 0 0 1000 1000"><path d="M770.7 91.6l-.7 1.1c-8.6-4.7-18.2-8.1-28.7-8.1-33.9 0-61.3 27.4-61.3 61.3 0 19.4 9.4 35.8 23.5 47.1l-.5.8c99.2 65.8 164.6 178.4 164.6 306.3 0 202.9-164.6 367.5-367.5 367.5s-367.5-164.6-367.5-367.5c0-127.5 65-239.9 163.7-305.8l-.5-.7c14.5-11.2 24.4-27.9 24.4-47.7 0-33.8-27.4-61.3-61.3-61.3-11.1 0-20.9 3.7-29.8 8.9l-.8-1.2c-131.6 87.9-218.3 237.7-218.3 407.7 0 270.6 219.4 490 490 490s490-219.4 490-490c.1-170.5-87.2-320.6-219.3-408.4zm-270.7 347.2c33.8 0 61.3-27.4 61.3-61.3v-306.2c0-33.8-27.4-61.3-61.3-61.3-33.8 0-61.3 27.4-61.3 61.3v306.3c.1 33.7 27.5 61.2 61.3 61.2z"/></svg>
