<svg xmlns="http://www.w3.org/2000/svg" width="30" height="32" viewBox="0 0 30 32"><path d="M27.125 13.857q1.107 0 1.848.723t.741 1.813q0 1.732-1.661 2.321l-3.071 1.054 1 2.982q.125.375.125.839 0 1.054-.75 1.821t-1.804.768q-.839 0-1.527-.482t-.955-1.286l-.982-2.946-5.536 1.893.982 2.929q.143.429.143.839 0 1.054-.75 1.821t-1.821.768q-.839 0-1.518-.482t-.946-1.286l-.982-2.911-2.732.946q-.518.161-.893.161-1.089 0-1.813-.714t-.723-1.804q0-.839.491-1.518t1.277-.946l2.786-.946-1.875-5.589-2.786.964q-.464.143-.857.143-1.071 0-1.804-.723t-.732-1.795q0-.839.491-1.518t1.277-.946l2.804-.946-.946-2.839q-.143-.429-.143-.839 0-1.071.75-1.83t1.821-.759q.839 0 1.518.482t.946 1.286l.964 2.857 5.536-1.875-.964-2.857q-.143-.429-.143-.839 0-1.054.759-1.821t1.812-.768q.839 0 1.527.491t.955 1.277l.946 2.875 2.893-.982q.375-.107.768-.107 1.071 0 1.83.705t.759 1.759q0 .804-.536 1.455t-1.321.92l-2.804.964 1.875 5.643 2.929-1q.429-.143.821-.143zm-14.179 4.679l5.536-1.875-1.875-5.625-5.536 1.911z"/></svg>