<?xml version="1.0" encoding="utf-8"?>
<!-- Generated by IcoMoon.io -->
<!DOCTYPE svg PUBLIC "-//W3C//DTD SVG 1.1//EN" "http://www.w3.org/Graphics/SVG/1.1/DTD/svg11.dtd">
<svg version="1.1" xmlns="http://www.w3.org/2000/svg" xmlns:xlink="http://www.w3.org/1999/xlink" width="30" height="32" viewBox="0 0 30 32">
<path d="M27.125 13.857q1.107 0 1.848 0.723t0.741 1.813q0 1.732-1.661 2.321l-3.071 1.054 1 2.982q0.125 0.375 0.125 0.839 0 1.054-0.75 1.821t-1.804 0.768q-0.839 0-1.527-0.482t-0.955-1.286l-0.982-2.946-5.536 1.893 0.982 2.929q0.143 0.429 0.143 0.839 0 1.054-0.75 1.821t-1.821 0.768q-0.839 0-1.518-0.482t-0.946-1.286l-0.982-2.911-2.732 0.946q-0.518 0.161-0.893 0.161-1.089 0-1.813-0.714t-0.723-1.804q0-0.839 0.491-1.518t1.277-0.946l2.786-0.946-1.875-5.589-2.786 0.964q-0.464 0.143-0.857 0.143-1.071 0-1.804-0.723t-0.732-1.795q0-0.839 0.491-1.518t1.277-0.946l2.804-0.946-0.946-2.839q-0.143-0.429-0.143-0.839 0-1.071 0.75-1.83t1.821-0.759q0.839 0 1.518 0.482t0.946 1.286l0.964 2.857 5.536-1.875-0.964-2.857q-0.143-0.429-0.143-0.839 0-1.054 0.759-1.821t1.812-0.768q0.839 0 1.527 0.491t0.955 1.277l0.946 2.875 2.893-0.982q0.375-0.107 0.768-0.107 1.071 0 1.83 0.705t0.759 1.759q0 0.804-0.536 1.455t-1.321 0.92l-2.804 0.964 1.875 5.643 2.929-1q0.429-0.143 0.821-0.143zM12.946 18.536l5.536-1.875-1.875-5.625-5.536 1.911z"></path>
</svg>
