<svg width="308" height="109" viewBox="0 0 308 109" xmlns="http://www.w3.org/2000/svg"><g fill="none" fill-rule="evenodd"><path d="M120.496 96.617c-16.448 0-26.763-10.745-26.763-24.9V24.939c0-14.152 10.315-24.897 26.763-24.897 16.45 0 25.72 10.745 25.72 24.897v8.779c0 1.836-1.568 3.407-3.395 3.407h-11.228c-1.829 0-3.394-1.571-3.394-3.407v-8.779c0-4.325-2.35-8.78-7.703-8.78-5.875 0-8.354 4.455-8.354 8.78v46.78c0 4.324 2.479 8.78 8.354 8.78 5.353 0 7.703-4.455 7.703-8.78v-8.78c0-1.833 1.565-3.406 3.394-3.406h11.228c1.827 0 3.395 1.573 3.395 3.407v8.779c0 14.154-9.27 24.899-25.72 24.899zm70.175-1.573h-35.508c-1.83 0-3.394-1.574-3.394-3.407V4.757c0-1.835 1.565-3.275 3.394-3.275h11.75a3.227 3.227 0 0 1 2.316.949 3.25 3.25 0 0 1 .946 2.326V75.65c0 1.834 1.564 3.276 3.394 3.276h17.102c1.826 0 3.393 1.572 3.393 3.406v9.304c0 1.833-1.567 3.407-3.393 3.407zm40.986-68.796c-.129-.918-.915-1.44-1.567-1.44-.652 0-1.435.522-1.435 1.44l-4.177 30.533c-.261 1.833.912 3.277 2.87 3.277h5.615c1.826 0 2.873-1.443 2.74-3.277l-4.046-30.533zM257.9 95.044h-11.881c-1.959 0-3.656-1.442-3.918-3.278l-2.742-14.807c-.39-1.834-2.088-3.407-3.917-3.407h-10.573c-1.959 0-3.656 1.573-3.917 3.407l-2.741 14.807c-.392 1.836-2.089 3.278-3.917 3.278h-11.88c-1.958 0-3.003-1.442-2.611-3.278l18.539-87.01c.39-1.835 2.087-3.275 4.046-3.275h15.537c1.826 0 3.655 1.44 4.047 3.276l18.538 87.009c.392 1.837-.783 3.278-2.61 3.278zm32.605-44.817c-.262.918-.652 2.229-.915 3.41-.129 1.178-.26 2.225-.26 3.143v34.857c0 1.833-1.436 3.407-3.395 3.407h-11.75c-1.826 0-3.393-1.574-3.393-3.407V56.65c0-1.05-.13-2.228-.391-3.538-.131-1.048-.393-2.228-.782-3.014L253.037 4.626c-.523-1.704.391-3.144 2.221-3.144h10.706c2.479 0 4.046 1.31 4.438 3.144l8.224 28.698c.261.918.912 1.311 1.436 1.311.653 0 1.174-.393 1.436-1.311l8.356-28.698c.523-1.834 1.828-3.144 4.307-3.144H305c1.956 0 2.87 1.44 2.218 3.144l-16.712 45.601z" fill="#A59B8B"/><g transform="translate(0 .646)"><path d="M43.607 67.77c-.095.282-.252.79-.446 1.5a56.649 56.649 0 0 0-.933 3.994c-2.018 10.194-2.018 21.512 1.353 32.873a2.27 2.27 0 0 0 2.828 1.542 2.295 2.295 0 0 0 1.53-2.851c-3.137-10.563-3.137-21.153-1.248-30.665.27-1.382.562-2.61.854-3.669.102-.366.193-.686.276-.95.044-.154.077-.25.09-.289a2.298 2.298 0 0 0-1.416-2.908 2.272 2.272 0 0 0-2.892 1.427h.004v-.004zm29.402 1.485c.014.04.044.137.09.29.084.267.176.583.274.947.292 1.06.584 2.29.855 3.669 1.888 9.514 1.888 20.103-1.247 30.669a2.292 2.292 0 0 0 1.527 2.851 2.279 2.279 0 0 0 2.832-1.542c3.369-11.365 3.369-22.684 1.351-32.877a54.813 54.813 0 0 0-.932-3.994 29.948 29.948 0 0 0-.445-1.498 2.274 2.274 0 0 0-2.889-1.428 2.301 2.301 0 0 0-1.416 2.913zM4.935 71.598c.428-9.339 4.221-15.168 10.339-18.44 2.236-1.196 4.65-1.97 7.081-2.393.867-.15 1.68-.244 2.411-.297.455-.031.792-.041.988-.04h-.003a2.283 2.283 0 0 0 2.315-2.25 2.285 2.285 0 0 0-2.234-2.333h-.038c-.31 0-.764.01-1.34.05-.884.061-1.85.175-2.877.354-2.876.502-5.744 1.417-8.442 2.861C5.625 53.13.892 60.403.386 71.388a2.288 2.288 0 0 0 2.17 2.394 2.28 2.28 0 0 0 2.377-2.184h.002zm117.546-.21c-.506-10.986-5.236-18.258-12.748-22.278-2.698-1.443-5.566-2.36-8.44-2.86a28.23 28.23 0 0 0-2.878-.353 19.01 19.01 0 0 0-1.341-.051h-.034a2.287 2.287 0 0 0-2.238 2.333 2.282 2.282 0 0 0 2.315 2.25c-.007 0-.007 0 0 0 .194-.003.529.007.983.037.733.05 1.545.147 2.414.299 2.428.425 4.843 1.195 7.081 2.394 6.118 3.27 9.91 9.1 10.339 18.44a2.28 2.28 0 0 0 2.378 2.182 2.285 2.285 0 0 0 2.168-2.394h.001z" fill="#C8B585"/><path d="M61.019 88c27.899 0 50.516-9.028 50.516-37.124C111.536 22.776 84.492 0 61.02 0S10.502 22.776 10.502 50.875C10.502 78.973 33.119 88 61.019 88z" fill="#DDCFAC"/><path d="M56.033 55.133c.332 2.182 2.186 3.814 4.384 3.814 2.2 0 4.057-1.638 4.384-3.82a.685.685 0 0 0-.574-.783.674.674 0 0 0-.773.574c-.228 1.518-1.517 2.655-3.035 2.655-1.517 0-2.804-1.136-3.034-2.649a.683.683 0 1 0-1.349.207l-.003.002z" fill="#776A50"/><ellipse fill="#776A50" cx="37.747" cy="39.689" rx="3.64" ry="5.729"/><ellipse fill="#776A50" cx="83.269" cy="39.689" rx="3.638" ry="5.729"/><path d="M72.368 1.698c16.994 7.76 31.626 25.368 31.626 45.848 0 27.657-22.312 36.544-49.835 36.544-11.32 0-21.755-1.506-30.121-5.198 9.25 6.728 22.68 9.322 37.632 9.322 27.897 0 50.514-9.025 50.514-37.122 0-23.885-19.542-43.922-39.816-49.394" fill="#C8B585"/></g><path d="M10.645 57.234c.03-.031.16-.144.156-.188-.156-2.37-.266-2.4-.28-5.716 0-.052-.021.044-.063.074.03 1.2-.158 1.575.187 5.83zm30.219 29.518c-.113-.014.144-.357.03-.375-6.14-.92-9.616-2.851-13.215-4.55 5.142 2.868 6.748 3.43 13.163 4.934m34.511.941c-9.57 1.402-22.068 1.106-29.94-.468-.16-.067.125.25-.01.42 5.09.831 10.546 1.205 16.22 1.205 4.805 0 9.454-.268 13.856-.853-.065-.226-.126-.304-.126-.304zm36.078-30.873c-1.133 17.003-14.265 26.936-31.31 30.203-.108-.017.016 0-.016.251 17.485-3.274 29.697-12.641 31.84-30.423 0 0 .063.218-.514-.031zm.655-5.73c.062.073-.25-.067-.405-.1.03-3.412-.967-16.565-8.805-26.914 5.454 7.403 8.298 14.863 9.107 23.835.123 1.358.182 1.93.125 3.2" fill="#B8A376"/></g></svg>
